<svg width="41" height="41" viewBox="0 0 41 41" fill="none" xmlns="http://www.w3.org/2000/svg">
<path d="M23.0162 17.0241V16.976C23.0062 16.9918 22.9934 17.0087 22.9838 17.0241H23.0162Z" fill="black"/>
<path fill-rule="evenodd" clip-rule="evenodd" d="M0 20.5C0 9.17827 9.17827 0 20.5 0C31.8217 0 41 9.17827 41 20.5C41 31.8217 31.8217 41 20.5 41C9.17827 41 0 31.8217 0 20.5ZM10.0658 30.0582H15.0108V15.1821H10.0658V30.0582ZM12.5385 13.1521H12.5053C10.8466 13.1521 9.77151 12.0085 9.77151 10.5805C9.77151 9.1209 10.8786 8.01051 12.571 8.01051C14.2634 8.01051 15.3039 9.12049 15.3363 10.5805C15.3363 12.0089 14.2638 13.1521 12.5385 13.1521ZM27.8994 30.0582H32.844V21.5281C32.844 16.9585 30.4041 14.8325 27.1494 14.8325C24.5225 14.8325 23.3489 16.2784 22.6917 17.2906V15.1821H17.7454C17.812 16.5785 17.7454 30.0582 17.7454 30.0582H22.6925V21.7505C22.6925 21.3057 22.7262 20.8629 22.8567 20.5449C23.2147 19.6553 24.0278 18.7357 25.3943 18.7357C27.184 18.7357 27.8994 20.1001 27.8994 22.0993V30.0582Z" fill="#D09D31"/>
</svg>
