<svg width="41" height="41" viewBox="0 0 41 41" fill="none" xmlns="http://www.w3.org/2000/svg">
<path fill-rule="evenodd" clip-rule="evenodd" d="M25.742 10H15.258C12.6345 10 10.5 12.2305 10.5 14.972V26.028C10.5 28.7695 12.6345 31 15.258 31H25.742C28.3655 31 30.5 28.7695 30.5 26.028V14.972C30.5 12.2305 28.3655 10 25.742 10ZM20.02 27.12C16.4638 27.12 13.5708 24.1289 13.5708 20.4525C13.5708 16.776 16.4642 13.785 20.02 13.785C23.5758 13.785 26.4693 16.776 26.4693 20.4525C26.4693 24.1289 23.5762 27.12 20.02 27.12ZM25.0666 13.5122C25.0666 14.388 25.7459 15.0979 26.584 15.0979C27.4222 15.0979 28.1015 14.388 28.1015 13.5122C28.1015 12.6363 27.4222 11.9265 26.584 11.9265C25.7459 11.9265 25.0666 12.6363 25.0666 13.5122Z" fill="#D09D31"/>
<path fill-rule="evenodd" clip-rule="evenodd" d="M0 20.5C0 9.17827 9.17827 0 20.5 0C31.8217 0 41 9.17827 41 20.5C41 31.8217 31.8217 41 20.5 41C9.17827 41 0 31.8217 0 20.5ZM25.8416 33.2672C29.8753 33.2672 33.1574 29.9855 33.1574 25.9513V15.0674C33.1574 11.0336 29.8757 7.75152 25.8416 7.75152H15.0566C11.0228 7.75152 7.74071 11.0332 7.74071 15.0674V25.9513C7.74071 29.9851 11.0224 33.2672 15.0566 33.2672H25.8416Z" fill="#D09D31"/>
<path d="M20 16.2998C17.7942 16.2998 16 18.0941 16 20.2998C16 22.5055 17.7942 24.2998 20 24.2998C22.2058 24.2998 24 22.5055 24 20.2998C24 18.0941 22.2058 16.2998 20 16.2998Z" fill="#D09D31"/>
</svg>
