<svg width="41" height="41" viewBox="0 0 41 41" fill="none" xmlns="http://www.w3.org/2000/svg">
<path fill-rule="evenodd" clip-rule="evenodd" d="M0 20.5C0 9.17827 9.17827 0 20.5 0C31.8217 0 41 9.17827 41 20.5C41 31.8217 31.8217 41 20.5 41C9.17827 41 0 31.8217 0 20.5ZM23.5938 11.7503H26.523C26.5296 10.1531 26.5296 8.56259 26.5234 6.96539C26.1457 6.96539 25.768 6.96498 25.3903 6.96456C24.2571 6.96332 23.1237 6.96207 21.9904 6.97205C20.5586 7.01195 19.0479 7.35659 17.9807 8.37053C17.099 9.18576 16.655 10.3718 16.5556 11.5583C16.5252 12.4066 16.5296 13.2571 16.5339 14.1073C16.5372 14.7449 16.5404 15.3823 16.529 16.0185C16.1371 16.0214 15.744 16.0206 15.3507 16.0198C14.8261 16.0187 14.3013 16.0176 13.7786 16.0252C13.7786 16.5329 13.7794 17.0412 13.7801 17.5501C13.7816 18.5692 13.7831 19.5902 13.7786 20.6114C14.3013 20.619 14.8262 20.6179 15.3507 20.6168C15.744 20.616 16.1371 20.6152 16.529 20.6181C16.5379 22.6418 16.5363 24.6655 16.5346 26.6891C16.5326 29.2186 16.5305 31.748 16.549 34.2774C17.6246 34.2698 18.698 34.2709 19.7717 34.272C20.5769 34.2728 21.3823 34.2736 22.1891 34.2707C22.1957 31.994 22.1941 29.7191 22.1924 27.4442C22.1907 25.1693 22.1891 22.8945 22.1957 20.6181C22.7382 20.6152 23.2807 20.616 23.8232 20.6168C24.5466 20.6179 25.27 20.619 25.9933 20.6114C26.2186 19.087 26.4107 17.5492 26.5167 16.0052C25.8008 16.0019 25.085 16.0019 24.3692 16.0019C23.6533 16.0019 22.9376 16.0019 22.2219 15.9986C22.2219 15.7318 22.2215 15.465 22.2211 15.1983C22.2198 14.398 22.2186 13.5979 22.2286 12.7975C22.3412 12.181 22.9773 11.7104 23.5938 11.7503Z" fill="#D09D31"/>
</svg>
