<svg width="21" height="20" viewBox="0 0 21 20" fill="none" xmlns="http://www.w3.org/2000/svg">
<path fill-rule="evenodd" clip-rule="evenodd" d="M19.8947 4.75555V2.22222C19.8947 1 18.9 0 17.6842 0H2.21053C0.983684 0 0 1 0 2.22222V17.7778C0 19 0.983684 20 2.21053 20H17.6842C18.9 20 19.8947 19 19.8947 17.7778V15.2444C20.5468 14.8556 21 14.1556 21 13.3333V6.66667C21 5.84444 20.5468 5.14444 19.8947 4.75555ZM18.7895 6.66663V13.3333H11.0526V6.66663H18.7895ZM2.21053 2.22222V17.7778H17.6842V15.5556H11.0526C9.83684 15.5556 8.84211 14.5556 8.84211 13.3333V6.66667C8.84211 5.44444 9.83684 4.44444 11.0526 4.44444H17.6842V2.22222H2.21053Z" fill="white"/>
<circle cx="13.5" cy="9.5" r="1.5" fill="white"/>
</svg>
