<svg width="41" height="41" viewBox="0 0 41 41" fill="none" xmlns="http://www.w3.org/2000/svg">
<path fill-rule="evenodd" clip-rule="evenodd" d="M20.5 0C9.17827 0 0 9.17827 0 20.5C0 31.8217 9.17827 41 20.5 41C31.8217 41 41 31.8217 41 20.5C41 9.17827 31.8217 0 20.5 0ZM32.7633 12.0064C32.7655 12.0064 32.7675 12.0067 32.7695 12.0071C32.772 12.0076 32.7745 12.0084 32.7769 12.0091C32.7784 12.0096 32.7798 12.01 32.7812 12.0104C32.782 12.0106 32.7828 12.0108 32.7836 12.011C32.7856 12.0114 32.7875 12.0117 32.7895 12.0118L21.3501 23.4512C20.9689 23.8324 20.2938 23.8332 19.9126 23.4504L8.46864 12.0064H32.7633ZM7.67258 12.7629C7.67173 12.7657 7.67087 12.7686 7.67087 12.7718V28.3101L15.4502 20.5308L7.6742 12.7547C7.6742 12.7576 7.67339 12.7602 7.67258 12.7629ZM8.3775 29.1967L8.37748 29.1967C8.36403 29.1929 8.35055 29.1892 8.33644 29.1873L16.2214 21.3023L19.141 24.2219C19.538 24.619 20.0672 24.8372 20.6314 24.8372C21.1959 24.8372 21.7243 24.6181 22.1213 24.2219L24.9465 21.3967L32.7571 29.2073H8.43621C8.41552 29.2073 8.39653 29.202 8.3775 29.1967ZM25.7181 20.6255L33.5287 28.4361V12.8154L25.7181 20.6255Z" fill="#D09D31"/>
</svg>
