<svg width="108" height="66" viewBox="0 0 108 66" fill="none" xmlns="http://www.w3.org/2000/svg">
<path fill-rule="evenodd" clip-rule="evenodd" d="M3.46899 31.1751C15.4944 38.8906 28.7588 50.0276 49.0423 54.9292C34.3522 47.2322 -9.12191 25.8619 3.15873 0C18.0562 27.6282 54.5778 60.6017 70 59.114C65.7662 61.0318 60.1248 62.7766 54.5814 63.8348C48.7042 64.9567 42.9063 65.1559 39.0897 64.9017C34.231 64.5782 30.7177 63.1522 29.8843 60.8819C33.8712 61.9335 47.3405 63.9943 52.7202 60.4428C48.1479 61.212 19.7354 60.7607 14.3491 50.0456C25.3559 53.2841 37.9255 58.683 49.959 58.2973C34.4478 54.3591 7.03143 50.6371 3.46899 31.1751Z" fill="#FFFFFE"/>
<path fill-rule="evenodd" clip-rule="evenodd" d="M89.676 45.2443C82.857 47.4028 71.1763 51.7836 60.7449 51.4895C66.1735 52.494 99.3958 39.6929 106 21C80.6229 42.2535 58.0568 52.9321 51 50.9263C54.2132 53.7364 66.7886 60.7208 73.5842 56.8667C70.4343 57.1009 60.3695 56.111 58.2429 53.6796C60.1819 54.6785 72.2122 58.5686 79.2082 53.5864C73.4711 53.7073 65.6121 54.7749 59.8581 53.0022C66.581 53.4096 79.9267 55.4844 89.676 45.2443Z" fill="#FFFFFE"/>
</svg>
